<svg width="32" height="32" fill="none" xmlns="http://www.w3.org/2000/svg"><circle cx="16" cy="16" r="16" fill="#fff"/><path d="M23.583 11.6h-.888l-1.842-5.148a2.204 2.204 0 0 0-.793-1.05c-.364-.26-.798-.4-1.243-.402h-1.734C16.488 5 16 5.495 16 6.1c0 .605.488 1.1 1.083 1.1h1.734l1.581 4.4h-5.21l-.39-1.1h.097c.596 0 1.083-.495 1.083-1.1 0-.605-.487-1.1-1.083-1.1h-3.228c-.596 0-1.084.495-1.084 1.1 0 .605.488 1.1 1.084 1.1h.812l1.972 5.5h-.726c-.477-2.453-2.502-4.268-5.037-4.389C5.654 11.457 3 14.02 3 17.1s2.383 5.5 5.417 5.5c2.665 0 4.82-1.859 5.308-4.4h4.55c.477 2.453 2.503 4.268 5.038 4.389 3.033.143 5.687-2.409 5.687-5.5 0-3.069-2.383-5.489-5.417-5.489ZM9.5 18.2h1.972A3.193 3.193 0 0 1 8.2 20.389c-1.614-.099-2.957-1.485-3.033-3.135-.076-1.925 1.376-3.454 3.25-3.454 1.44 0 2.621.913 3.055 2.2H9.5c-.596 0-1.083.495-1.083 1.1 0 .605.487 1.1 1.083 1.1Zm8.775-2.2h-1.517l-.79-2.2h3.282a5.245 5.245 0 0 0-.975 2.2Zm5.178 4.4c-1.668-.066-3.076-1.507-3.12-3.212a3.303 3.303 0 0 1 1.138-2.596l.671 1.87c.206.572.824.869 1.387.66.564-.209.856-.836.65-1.408l-.682-1.903.01-.011c.435-.015.868.06 1.273.219.405.16.774.4 1.085.71.31.308.557.677.723 1.084.167.408.25.846.245 1.287 0 1.892-1.495 3.366-3.38 3.3Z" fill="url(#a)"/><defs><linearGradient id="a" x1="16" y1="5" x2="16" y2="27" gradientUnits="userSpaceOnUse"><stop stop-color="#FFB60D"/><stop offset="1" stop-color="#E59317"/></linearGradient></defs></svg>