<svg width="136" height="33" fill="none" xmlns="http://www.w3.org/2000/svg"><path d="M5.133 12.649c.66-1.075 1.564-1.948 2.713-2.62 1.173-.672 2.505-1.008 3.996-1.008 1.735 0 3.3.47 4.693 1.411 1.417.94 2.53 2.284 3.336 4.03.831 1.72 1.247 3.721 1.247 6.005s-.416 4.313-1.247 6.086c-.807 1.746-1.919 3.103-3.336 4.07-1.393.968-2.958 1.451-4.693 1.451-1.515 0-2.848-.322-3.996-.967a8.22 8.22 0 0 1-2.713-2.58v3.185H0V1.888h5.133v10.76Zm10.742 7.818c0-1.343-.257-2.498-.77-3.466-.489-.994-1.149-1.746-1.98-2.257a4.839 4.839 0 0 0-2.64-.765c-.928 0-1.808.268-2.64.806-.806.51-1.466 1.262-1.979 2.257-.489.994-.733 2.162-.733 3.506 0 1.343.244 2.512.733 3.506.513.994 1.173 1.76 1.98 2.298.83.51 1.71.765 2.64.765.953 0 1.832-.268 2.64-.806.83-.537 1.49-1.303 1.979-2.297.513-.994.77-2.176.77-3.547ZM27.45 6.724c-.904 0-1.662-.309-2.273-.927-.587-.645-.88-1.437-.88-2.378 0-.94.293-1.72.88-2.337.61-.645 1.369-.967 2.273-.967.904 0 1.65.322 2.236.967.611.618.917 1.397.917 2.337 0 .94-.306 1.733-.917 2.378-.586.618-1.332.927-2.236.927Zm2.53 2.66v22.328h-5.133V9.384h5.133Zm17.097 22.328L40.184 22.2v9.512h-5.133V1.888h5.133v16.967l6.82-9.47h6.672L44.73 20.587l9.019 11.124h-6.672Zm7.046-11.164c0-2.31.428-4.326 1.283-6.045.855-1.747 2.04-3.09 3.556-4.03 1.516-.968 3.25-1.452 5.206-1.452 2.518 0 4.595.7 6.233 2.096 1.662 1.37 2.774 3.305 3.336 5.804h-5.535c-.293-.967-.794-1.72-1.503-2.257-.684-.564-1.54-.846-2.566-.846-1.467 0-2.628.59-3.483 1.773-.856 1.155-1.283 2.807-1.283 4.957 0 2.123.427 3.775 1.283 4.957.855 1.155 2.016 1.733 3.483 1.733 2.077 0 3.434-1.02 4.07-3.063h5.535c-.562 2.418-1.674 4.34-3.336 5.763-1.662 1.424-3.74 2.136-6.233 2.136-1.955 0-3.69-.47-5.206-1.41-1.503-.954-2.735-2.35-3.556-4.03-.855-1.747-1.283-3.775-1.283-6.086h-.001Zm27.49-7.698a7.65 7.65 0 0 1 2.566-2.78c1.075-.672 2.297-1.008 3.666-1.008v5.924h-1.356c-1.614 0-2.836.417-3.667 1.25-.806.832-1.21 2.283-1.21 4.352v11.124H76.48V9.384h5.132v3.466Zm21.97 15.678c-.562 1.02-1.478 1.88-2.749 2.58a8.658 8.658 0 0 1-4.106 1.007c-1.271 0-2.42-.282-3.447-.847a6.252 6.252 0 0 1-2.42-2.337c-.586-.994-.88-2.136-.88-3.426 0-2.069.697-3.761 2.09-5.078 1.418-1.317 3.532-1.975 6.343-1.975h5.169c-.049-1.424-.427-2.552-1.136-3.385-.685-.86-1.638-1.29-2.86-1.29-1.075 0-1.967.323-2.676.967-.709.618-1.161 1.492-1.357 2.62h-5.132c.244-1.612.77-3.05 1.576-4.312.824-1.283 1.935-2.31 3.226-2.983 1.345-.725 2.848-1.088 4.51-1.088 1.711 0 3.251.39 4.619 1.169 1.36.744 2.493 1.906 3.263 3.345.782 1.45 1.173 3.157 1.173 5.118v13.099h-5.206v-3.184Zm-5.352-.967c.855 0 1.686-.202 2.493-.605a5.135 5.135 0 0 0 2.053-1.814c.537-.806.806-1.76.806-2.861v-.161h-4.876c-1.173 0-2.053.255-2.64.765-.562.511-.843 1.183-.843 2.016 0 .806.257 1.45.77 1.934.538.484 1.283.726 2.237.726Zm21.383-13.542v17.693h-5.206V14.019h-2.31V9.384h2.31V8.256c0-2.74.709-4.756 2.126-6.046C117.952.92 120.091.316 122.95.397v4.755c-1.246-.026-2.114.202-2.603.686-.489.483-.733 1.356-.733 2.62v.926h6.67V3.863h5.17v5.521H136v4.635h-4.546V24.82c0 .752.159 1.303.476 1.652.343.323.905.484 1.687.484H136v4.756h-3.226c-4.326 0-6.49-2.311-6.49-6.932V14.019h-6.67Z" fill="#fff"/></svg>