<svg width="32" height="32" viewBox="0 0 32 32" fill="none" xmlns="http://www.w3.org/2000/svg">
<circle cx="16" cy="16" r="16" fill="white"/>
<path d="M23.5833 11.6H22.695L20.8533 6.452C20.7009 6.02751 20.4239 5.66072 20.0597 5.40108C19.6955 5.14144 19.2617 5.00145 18.8167 5H17.0833C16.4875 5 16 5.495 16 6.1C16 6.705 16.4875 7.2 17.0833 7.2H18.8167L20.3983 11.6H15.1875L14.7975 10.5H14.895C15.4908 10.5 15.9783 10.005 15.9783 9.4C15.9783 8.795 15.4908 8.3 14.895 8.3H11.6667C11.0708 8.3 10.5833 8.795 10.5833 9.4C10.5833 10.005 11.0708 10.5 11.6667 10.5H12.4792L14.4508 16H13.725C13.2483 13.547 11.2225 11.732 8.6875 11.611C5.65417 11.457 3 14.02 3 17.1C3 20.18 5.38333 22.6 8.41667 22.6C11.0817 22.6 13.2375 20.741 13.725 18.2H18.275C18.7517 20.653 20.7775 22.468 23.3125 22.589C26.3458 22.732 29 20.18 29 17.089C29 14.02 26.6167 11.6 23.5833 11.6ZM9.5 18.2H11.4717C11.0167 19.553 9.73833 20.488 8.2 20.389C6.58583 20.29 5.2425 18.904 5.16667 17.254C5.09083 15.329 6.5425 13.8 8.41667 13.8C9.8575 13.8 11.0383 14.713 11.4717 16H9.5C8.90417 16 8.41667 16.495 8.41667 17.1C8.41667 17.705 8.90417 18.2 9.5 18.2ZM18.275 16H16.7583L15.9675 13.8H19.25C18.7733 14.438 18.4267 15.175 18.275 16ZM23.4533 20.4C21.785 20.334 20.3767 18.893 20.3333 17.188C20.3117 16.132 20.7558 15.208 21.4708 14.592L22.1425 16.462C22.3483 17.034 22.9658 17.331 23.5292 17.122C24.0925 16.913 24.385 16.286 24.1792 15.714L23.4967 13.811L23.5075 13.8C23.9418 13.785 24.3747 13.8595 24.7799 14.019C25.1851 14.1785 25.5543 14.4198 25.8651 14.7282C26.1759 15.0366 26.422 15.4058 26.5884 15.8134C26.7548 16.2211 26.8381 16.6587 26.8333 17.1C26.8333 18.992 25.3383 20.466 23.4533 20.4Z" fill="url(#paint0_linear_137_1803)"/>
<defs>
<linearGradient id="paint0_linear_137_1803" x1="16" y1="5" x2="16" y2="27" gradientUnits="userSpaceOnUse">
<stop stop-color="#FFB60D"/>
<stop offset="1" stop-color="#E59317"/>
</linearGradient>
</defs>
</svg>
