<svg width="136" height="33" viewBox="0 0 136 33" fill="none" xmlns="http://www.w3.org/2000/svg">
<path d="M5.13273 12.6487C5.79265 11.574 6.69699 10.7007 7.84574 10.029C9.01894 9.35734 10.351 9.02149 11.8419 9.02149C13.5773 9.02149 15.1415 9.49168 16.5347 10.4321C17.9523 11.3725 19.0644 12.7159 19.871 14.4623C20.702 16.1819 21.1175 18.1835 21.1175 20.4673C21.1175 22.7511 20.702 24.7797 19.871 26.553C19.0644 28.2994 17.9523 29.6562 16.5347 30.6235C15.1415 31.5908 13.5773 32.0744 11.8419 32.0744C10.3266 32.0744 8.9945 31.752 7.84574 31.1071C6.72143 30.4354 5.81709 29.5756 5.13273 28.5278V31.7117H0V1.88798H5.13273V12.6487ZM15.8748 20.4673C15.8748 19.1239 15.6182 17.9686 15.1049 17.0013C14.6161 16.0072 13.9561 15.2549 13.1251 14.7444C12.323 14.2351 11.4117 13.9708 10.4854 13.9787C9.55665 13.9787 8.67676 14.2473 7.84574 14.7847C7.03917 15.2952 6.37925 16.0475 5.86598 17.0416C5.37714 18.0358 5.13273 19.2045 5.13273 20.5479C5.13273 21.8913 5.37714 23.0601 5.86598 24.0542C6.37925 25.0484 7.03917 25.8141 7.84574 26.3515C8.67676 26.862 9.55665 27.1172 10.4854 27.1172C11.4387 27.1172 12.3185 26.8485 13.1251 26.3112C13.9561 25.7738 14.6161 25.0081 15.1049 24.0139C15.6182 23.0198 15.8748 21.8376 15.8748 20.4673ZM27.4499 6.72426C26.5456 6.72426 25.7879 6.41527 25.1768 5.79731C24.5903 5.15247 24.297 4.35986 24.297 3.41947C24.297 2.47908 24.5903 1.69991 25.1768 1.08194C25.7879 0.437103 26.5456 0.114685 27.4499 0.114685C28.3543 0.114685 29.0997 0.437103 29.6863 1.08194C30.2974 1.69991 30.6029 2.47908 30.6029 3.41947C30.6029 4.35986 30.2974 5.15247 29.6863 5.79731C29.0997 6.41527 28.3543 6.72426 27.4499 6.72426ZM29.9796 9.38421V31.7117H24.8469V9.38421H29.9796ZM47.0765 31.7117L40.184 22.2003V31.7117H35.0512V1.88798H40.184V18.8552L47.0032 9.38421H53.6757L44.7301 20.5882L53.749 31.7117H47.0765ZM54.1228 20.5479C54.1228 18.2373 54.5505 16.2222 55.406 14.5026C56.2614 12.7562 57.4468 11.4128 58.9622 10.4724C60.4776 9.50511 62.2129 9.02149 64.1683 9.02149C66.6858 9.02149 68.7633 9.72006 70.4009 11.1172C72.0629 12.4875 73.175 14.422 73.7371 16.9207H68.2022C67.9089 15.9535 67.4078 15.2012 66.699 14.6638C66.0146 14.0996 65.1592 13.8175 64.1326 13.8175C62.6661 13.8175 61.5052 14.4086 60.6497 15.5908C59.7943 16.7461 59.3665 18.3985 59.3665 20.5479C59.3665 22.6705 59.7943 24.3229 60.6497 25.5051C61.5052 26.6604 62.6661 27.2381 64.1326 27.2381C66.2102 27.2381 67.5667 26.2171 68.2022 24.1751H73.7382C73.176 26.5933 72.0639 28.5143 70.4019 29.9384C68.7399 31.3624 66.6623 32.0744 64.1693 32.0744C62.214 32.0744 60.4786 31.6042 58.9632 30.6638C57.4599 29.7102 56.2283 28.3145 55.407 26.6336C54.5515 24.8871 54.1238 22.8586 54.1238 20.5479H54.1228ZM81.6124 12.8502C82.2418 11.701 83.1244 10.7446 84.1788 10.0693C85.2542 9.39764 86.4763 9.06179 87.845 9.06179V14.9862H86.4885C84.8754 14.9862 83.6533 15.4027 82.8223 16.2356C82.0157 17.0685 81.6124 18.5194 81.6124 20.5882V31.7117H76.4797V9.38421H81.6124V12.8502ZM103.583 28.5278C103.021 29.5488 102.105 30.4086 100.834 31.1071C99.5627 31.7788 98.194 32.1147 96.7275 32.1147C95.4565 32.1147 94.3078 31.8326 93.2812 31.2683C92.2547 30.7041 91.4481 29.9249 90.8615 28.9308C90.2749 27.9367 89.9816 26.7948 89.9816 25.5051C89.9816 23.4363 90.6782 21.7436 92.0714 20.427C93.489 19.1105 95.6032 18.4522 98.414 18.4522H103.583C103.534 17.0282 103.156 15.8997 102.447 15.0668C101.762 14.207 100.809 13.7772 99.5872 13.7772C98.5117 13.7772 97.6196 14.0996 96.9108 14.7444C96.202 15.3624 95.7498 16.2356 95.5543 17.3641H90.4216C90.666 15.752 91.1915 14.3145 91.998 13.0517C92.8218 11.7688 93.9332 10.7414 95.2243 10.0693C96.5686 9.3439 98.0718 8.98118 99.7338 8.98118C101.445 8.98118 102.985 9.37077 104.353 10.1499C105.713 10.8943 106.846 12.0564 107.616 13.495C108.398 14.9459 108.789 16.652 108.789 18.6134V31.7117H103.583V28.5278ZM98.2306 27.5605C99.0861 27.5605 99.9171 27.359 100.724 26.956C101.555 26.553 102.239 25.9484 102.777 25.1424C103.314 24.3363 103.583 23.3825 103.583 22.2809V22.1197H98.7073C97.5341 22.1197 96.6542 22.375 96.0676 22.8855C95.5054 23.396 95.2243 24.0677 95.2243 24.9006C95.2243 25.7066 95.481 26.3515 95.9942 26.8351C96.532 27.3187 97.2774 27.5605 98.2306 27.5605ZM119.614 14.019V31.7117H114.408V14.019H112.098V9.38421H114.408V8.25574C114.408 5.51519 115.117 3.50008 116.534 2.2104C117.952 0.92073 120.091 0.316197 122.95 0.396801V5.15247C121.704 5.1256 120.836 5.35398 120.347 5.83761C119.858 6.32123 119.614 7.19445 119.614 8.45725V9.38421H126.284V3.8628H131.454V9.38421H136V14.019H131.454V24.82C131.454 25.5723 131.613 26.1231 131.93 26.4724C132.273 26.7948 132.835 26.956 133.617 26.956H136V31.7117H132.774C128.448 31.7117 126.284 29.401 126.284 24.7797V14.019H119.614Z" fill="white"/>
</svg>
