<svg width="140" height="45" viewBox="0 0 140 45" fill="none" xmlns="http://www.w3.org/2000/svg">
<path d="M11.394 28.1815V34.3066C11.394 37.3691 10.274 38.4735 8.494 38.4735C6.714 38.4735 5.595 37.3691 5.595 34.3066V11.1515C5.595 8.08895 6.715 6.92439 8.495 6.92439C10.275 6.92439 11.394 8.08895 11.394 11.1515V15.7459H16.684V11.5802C16.684 4.71932 13.835 0.799316 8.342 0.799316C2.848 0.799316 0 4.71932 0 11.5802V33.8779C0 40.7388 2.848 44.66 8.342 44.66C13.835 44.66 16.684 40.7388 16.684 33.8779V28.1815H11.394ZM32.503 1.28947L38.2 44.1698H32.554L31.587 36.39H24.721L23.754 44.1698H18.617L24.314 1.28947H32.503ZM28.078 8.88499L25.433 30.5708H30.824L28.18 8.88379H28.079L28.078 8.88499ZM58.19 44.1698H52.493C52.188 43.0667 51.984 42.3923 51.984 38.901V32.1629C51.984 28.1815 50.865 26.7111 48.322 26.7111H46.389V44.1698H40.794V1.28947H49.238C55.036 1.28947 57.528 4.53626 57.528 11.1527V14.5211C57.528 18.9313 56.358 21.7493 53.866 23.1584C56.664 24.689 57.579 27.8744 57.579 32.3472V38.9624C57.579 41.0459 57.63 42.5765 58.189 44.1698H58.19ZM49.085 7.41454H46.389V20.586H48.576C50.662 20.586 51.933 19.484 51.933 16.053V11.8259C51.933 8.76336 51.069 7.41575 49.085 7.41575V7.41454ZM75.242 1.28947L80.939 44.1698H75.293L74.327 36.39H67.46L66.494 44.1698H61.356L67.053 1.28947H75.243H75.242ZM70.817 8.88499L68.172 30.5708H73.564L70.919 8.88379H70.817V8.88499ZM86.115 1.28947H80.469L85.962 44.1698H94.304L99.797 1.28947H94.66L90.438 36.266H90.336L86.115 1.28947ZM113.213 1.28947L118.91 44.1698H113.264L112.298 36.39H105.431L104.464 44.1698H99.327L105.024 1.28947H113.213ZM108.788 8.88499L106.143 30.5708H111.535L108.89 8.88379H108.788V8.88499ZM134.252 44.1698H140V1.28947H135.015V26.9555H134.913L129.267 1.28947H122.248V44.1698H127.284V13.1109H127.385L134.252 44.1698Z" fill="#9C9C9C"/>
</svg>
