<svg width="52" height="52" viewBox="0 0 52 52" fill="none" xmlns="http://www.w3.org/2000/svg">
<circle cx="2" cy="38" r="2" fill="#E6A40B"/>
<circle cx="2" cy="50" r="2" fill="#E6A40B"/>
<circle cx="14" cy="14" r="2" fill="#E6A40B"/>
<circle cx="14" cy="26" r="2" fill="#E6A40B"/>
<circle cx="14" cy="38" r="2" fill="#E6A40B"/>
<circle cx="14" cy="50" r="2" fill="#E6A40B"/>
<circle cx="26" cy="14" r="2" fill="#E6A40B"/>
<circle cx="26" cy="26" r="2" fill="#E6A40B"/>
<circle cx="26" cy="38" r="2" fill="#E6A40B"/>
<circle cx="26" cy="50" r="2" fill="#E6A40B"/>
<circle cx="38" cy="2" r="2" fill="#E6A40B"/>
<circle cx="38" cy="14" r="2" fill="#E6A40B"/>
<circle cx="38" cy="26" r="2" fill="#E6A40B"/>
<circle cx="38" cy="38" r="2" fill="#E6A40B"/>
<circle cx="38" cy="50" r="2" fill="#E6A40B"/>
<circle cx="50" cy="2" r="2" fill="#E6A40B"/>
<circle cx="50" cy="14" r="2" fill="#E6A40B"/>
<circle cx="50" cy="26" r="2" fill="#E6A40B"/>
<circle cx="50" cy="38" r="2" fill="#E6A40B"/>
<circle cx="50" cy="50" r="2" fill="#E6A40B"/>
<circle cx="2" cy="38" r="2" fill="#E6A40B"/>
<circle cx="2" cy="50" r="2" fill="#E6A40B"/>
</svg>
