<svg width="140" height="45" fill="none" xmlns="http://www.w3.org/2000/svg"><path d="M11.394 28.181v6.126c0 3.062-1.12 4.166-2.9 4.166-1.78 0-2.899-1.104-2.899-4.166V11.15c0-3.062 1.12-4.227 2.9-4.227 1.78 0 2.899 1.165 2.899 4.228v4.594h5.29V11.58C16.684 4.72 13.835.8 8.342.8 2.848.8 0 4.72 0 11.58v22.298c0 6.86 2.848 10.782 8.342 10.782 5.493 0 8.342-3.921 8.342-10.782V28.18h-5.29ZM32.503 1.29 38.2 44.17h-5.646l-.967-7.779h-6.866l-.967 7.78h-5.137l5.697-42.88h8.189Zm-4.425 7.596-2.645 21.686h5.391L28.18 8.884h-.101l-.001.001ZM58.19 44.17h-5.697c-.305-1.103-.509-1.778-.509-5.269v-6.738c0-3.981-1.119-5.452-3.662-5.452h-1.933V44.17h-5.595V1.29h8.444c5.798 0 8.29 3.246 8.29 9.863v3.368c0 4.41-1.17 7.228-3.662 8.637 2.798 1.531 3.713 4.716 3.713 9.19v6.614c0 2.084.051 3.614.61 5.208h.001ZM49.085 7.415h-2.696v13.171h2.187c2.086 0 3.357-1.102 3.357-4.533v-4.227c0-3.063-.864-4.41-2.848-4.41v-.001Zm26.157-6.126 5.697 42.88h-5.646l-.966-7.779H67.46l-.966 7.78h-5.138l5.697-42.88h8.19-.001Zm-4.425 7.596-2.645 21.686h5.392L70.919 8.884h-.102v.001Zm15.298-7.596h-5.646l5.493 42.88h8.342l5.493-42.88H94.66l-4.222 34.977h-.102L86.115 1.289Zm27.098 0 5.697 42.88h-5.646l-.966-7.779h-6.867l-.967 7.78h-5.137l5.697-42.88h8.189Zm-4.425 7.596-2.645 21.686h5.392L108.89 8.884h-.102v.001Zm25.464 35.285H140V1.29h-4.985v25.666h-.102l-5.646-25.667h-7.019v42.88h5.036V13.112h.101l6.867 31.059Z" fill="#9C9C9C"/></svg>